# xmcd
#
# Track frame offsets:
#	150
#	16646
#	31927
#	48448
#	63933
#	75863
#	90094
#	105019
#	119246
#	137495
#	155276
#	171702
#	183261
#	201890
#	221323
#	238343
#	254689
#	269222
#
# Disc length: 3771 seconds
#
# Revision: 0
# Processed by: cddbd v1.5.1PL2 Copyright (c) Steve Scherf et al.
# Submitted via: EasyCDDAExtractor 8.2.3.1
#
DISCID=ee0eb912
DTITLE=Frans Bauer - Nooit Op Album Verschenen Tracks
DYEAR=1900
DGENRE=
TTITLE0=Blue Spanish Eyes
TTITLE1=Ik leef alleen voor jou
TTITLE2=Samen door het leven
TTITLE3=Wat ik zou willen
TTITLE4=Onder de sterren van Santa Domenica
TTITLE5=Heimwee naar de zomer
TTITLE6=Leven met jou
TTITLE7=Al die dagen
TTITLE8=T is zomertijd
TTITLE9=Alles draait om de liefde
TTITLE10=Een zeemanshart
TTITLE11=Waar je ook bent geboren
TTITLE12=Eens
TTITLE13=Morgen schijnt voor jou de zon
TTITLE14=Voor jou
TTITLE15=Goodbye my love
TTITLE16=Ik ben stapel op jou
TTITLE17=Zevende hemel
EXTD=
EXTT0=
EXTT1=
EXTT2=
EXTT3=
EXTT4=
EXTT5=
EXTT6=
EXTT7=
EXTT8=
EXTT9=
EXTT10=
EXTT11=
EXTT12=
EXTT13=
EXTT14=
EXTT15=
EXTT16=
EXTT17=
PLAYORDER=
